<svg xmlns="http://www.w3.org/2000/svg" width="59.91" height="17" viewBox="0 0 59.91 17">
  <metadata><?xpacket begin="﻿" id="W5M0MpCehiHzreSzNTczkc9d"?>
<x:xmpmeta xmlns:x="adobe:ns:meta/" x:xmptk="Adobe XMP Core 5.6-c140 79.160451, 2017/05/06-01:08:21        ">
   <rdf:RDF xmlns:rdf="http://www.w3.org/1999/02/22-rdf-syntax-ns#">
      <rdf:Description rdf:about=""/>
   </rdf:RDF>
</x:xmpmeta>
                                                                                                    
                                                                                                    
                                                                                                    
                                                                                                    
                                                                                                    
                                                                                                    
                                                                                                    
                                                                                                    
                                                                                                    
                                                                                                    
                                                                                                    
                                                                                                    
                                                                                                    
                                                                                                    
                                                                                                    
                                                                                                    
                                                                                                    
                                                                                                    
                                                                                                    
                                                                                                    
                           
<?xpacket end="w"?></metadata>
<defs>
    <style>
      .cls-1 {
        fill: #778aa3;
      }

      .cls-1, .cls-2 {
        fill-rule: evenodd;
      }

      .cls-2 {
        fill: #ff3d2e;
      }
    </style>
  </defs>
  <path id="Combined_Shape" data-name="Combined Shape" class="cls-1" d="M3588.82,5556h2.83v17h-2.83v-17Zm11.98,5.67h2.72V5573h-2.72v-0.91a4.679,4.679,0,0,1-2.85.88,4.619,4.619,0,0,1-3.22-1.18,5.179,5.179,0,0,1-1.39-3.76v-6.36h2.72v6.38c0,0.9.29,2.39,1.91,2.39a2.617,2.617,0,0,0,2.83-2.76v-6.01Zm8.03-4.54h-2.71v4.14h-2.04v2.76h2.04V5573h2.71v-8.97h2.03v-2.76h-2.03v-4.14Zm10.95,12.03,1.82,1.86-0.43.42a5.79,5.79,0,0,1-9.74-4.43,5.644,5.644,0,0,1,5.75-5.91,5.763,5.763,0,0,1,3.96,1.54l0.45,0.42-1.8,1.87-0.4-.36a3.23,3.23,0,0,0-2.21-.83,3.109,3.109,0,0,0-3.21,3.29,3.229,3.229,0,0,0,5.4,2.5Zm11.89-6.71a5.21,5.21,0,0,1,1.23,3.83V5573h-2.74v-6.74c0-.91.04-2.44-1.6-2.44-0.65,0-2.52.21-2.52,2.81V5573h-2.74v-17h2.74v6.14a4.039,4.039,0,0,1,2.63-.9,3.975,3.975,0,0,1,3,1.21m-46.37,5.9,1.83,1.84-0.41.41a8.051,8.051,0,0,1-5.81,2.4,8.221,8.221,0,0,1,0-16.43,8.1,8.1,0,0,1,5.8,2.38l0.4,0.41-1.84,1.82-0.41-.42a5.645,5.645,0,0,0-3.95-1.62c-3.07,0-5.29,2.37-5.29,5.64a5.287,5.287,0,0,0,5.29,5.63,5.551,5.551,0,0,0,3.96-1.64Z" transform="translate(-3573 -5556)"/>
  <path id="Shape" class="cls-2" d="M3617.12,5564.9a2.025,2.025,0,1,0,2.02,2.03,2.023,2.023,0,0,0-2.02-2.03" transform="translate(-3573 -5556)"/>
</svg>
