<?xml version="1.0" encoding="UTF-8"?>
<svg width="24px" height="24px" viewBox="0 0 24 24" version="1.1" xmlns="http://www.w3.org/2000/svg" xmlns:xlink="http://www.w3.org/1999/xlink">
    <!-- Generator: Sketch 48.2 (47327) - http://www.bohemiancoding.com/sketch -->
    <title>facebook_circle</title>
    <desc>Created with Sketch.</desc>
    <defs></defs>
    <g id="Page-1" stroke="none" stroke-width="1" fill="none" fill-rule="evenodd">
        <g id="iconmonstr-facebook-5" fill="#778AA3" fill-rule="nonzero">
            <path d="M12,1 C18.0654,1 23,5.9346 23,12 C23,18.0654 18.0654,23 12,23 C5.9346,23 1,18.0654 1,12 C1,5.9346 5.9346,1 12,1 Z M12,0 C5.373,0 0,5.373 0,12 C0,18.627 5.373,24 12,24 C18.627,24 24,18.627 24,12 C24,5.373 18.627,0 12,0 Z M10,10 L8,10 L8,12 L10,12 L10,18 L13,18 L13,12 L14.82,12 L15,10 L13,10 L13,9.167 C13,8.689 13.096,8.5 13.558,8.5 L15,8.5 L15,6 L12.596,6 C10.798,6 10,6.792 10,8.308 L10,10 Z" id="Shape"></path>
        </g>
    </g>
</svg>