<svg id="Logo" xmlns="http://www.w3.org/2000/svg" viewBox="0 0 1708.88 445.76"><title>logo_new</title><path id="Shape_6_copy_6" data-name="Shape 6 copy 6" d="M123.64,195.64L481.85,231,445.91,583.7,87.69,548.31Z" transform="translate(-87.69 -155)" fill="#4a77da"/><path id="Shape_6_copy_7" data-name="Shape 6 copy 7" d="M928.93,176.63l358,37.66-38.25,352.43-358-37.66Z" transform="translate(-87.69 -155)" fill="#4a77da"/><path id="Shape_6_copy_8" data-name="Shape 6 copy 8" d="M1118.92,158.48h360V512.92h-360V158.48Z" transform="translate(-87.69 -155)" fill="#ffba00"/><path id="Shape_6_copy_9" data-name="Shape 6 copy 9" d="M589,221.44H949V575.88H589V221.44Z" transform="translate(-87.69 -155)" fill="#53bc0e"/><path id="Shape_6_copy_10" data-name="Shape 6 copy 10" d="M1404.3,247.89l358.42-33.33,33.85,352.87-358.41,33.33Z" transform="translate(-87.69 -155)" fill="#53bc0e"/><path id="Shape_6_copy_11" data-name="Shape 6 copy 11" d="M375.33,180.89L734.38,155l26.3,353.49L401.63,534.38Z" transform="translate(-87.69 -155)" fill="#ffba00"/><path id="SOSHACE" d="M331.81,367.07q-8.63-12.71-30.2-20.09a195.73,195.73,0,0,0-20.71-5.8q-9.73-2.11-20.3-4.35-16.12-3.42-21.4-7.58t-3.89-11.92a16,16,0,0,1,5.39-9.16,29.77,29.77,0,0,1,10-6,57.83,57.83,0,0,1,12.82-3.23,99.12,99.12,0,0,1,12.94-.86A93.86,93.86,0,0,1,311,304.47q16.32,6.39,26.67,15.88h5.49l8.1-45.2a159.31,159.31,0,0,0-31.57-9.42A191.88,191.88,0,0,0,281.5,262q-39.22,0-67.28,17.33t-33,44.73q-3.66,20.43,4.92,34.19T218.47,380a162.09,162.09,0,0,0,22.44,5.86q12.1,2.31,22.87,4.94,10.26,2.51,15,7.18a11.9,11.9,0,0,1,3.56,11.13q-1.25,7-5.7,10.54a39.23,39.23,0,0,1-10.77,5.93,55.53,55.53,0,0,1-12.92,2.64q-7.77.79-12.45,0.79a107.26,107.26,0,0,1-36.74-6.72,95.18,95.18,0,0,1-32.22-19.24h-5.62l-8.43,47A192.06,192.06,0,0,0,190,461q17.64,4.28,42.4,4.28,42.83,0,71-18.12t33.4-47.11Q340.44,379.79,331.81,367.07Zm226.46-78.14q-22.52-27.47-70.43-27.47t-80.27,27.47q-32.22,27.47-40.69,74.78-8.4,46.91,14,74.51t70.41,27.6q48.18,0,80.43-27.6t40.65-74.51q8.47-47.3-14-74.78h0ZM477.55,425A53.44,53.44,0,0,1,458,428.8a44.34,44.34,0,0,1-18.21-3.69,31.87,31.87,0,0,1-13.61-11.46q-5.3-7.77-7.17-20.09t1.26-29.85a109.65,109.65,0,0,1,9.61-30.11q6.54-13,14.55-20.36a55,55,0,0,1,17.89-11.33,54.33,54.33,0,0,1,19-3.43,44.77,44.77,0,0,1,17.9,3.56,31.47,31.47,0,0,1,13.67,11.46q5.32,7.64,7.25,20t-1.23,30a113.12,113.12,0,0,1-8.74,28.66,74,74,0,0,1-14.9,21.15A52.85,52.85,0,0,1,477.55,425Zm282-58q-8.63-12.71-30.2-20.09a195.73,195.73,0,0,0-20.71-5.8q-9.73-2.11-20.3-4.35-16.12-3.42-21.4-7.58t-3.89-11.92a16,16,0,0,1,5.39-9.16,29.77,29.77,0,0,1,10-6,57.84,57.84,0,0,1,12.82-3.23,99.13,99.13,0,0,1,12.94-.86,93.86,93.86,0,0,1,34.52,6.39q16.32,6.39,26.67,15.88h5.49l8.1-45.2a159.31,159.31,0,0,0-31.57-9.42A191.87,191.87,0,0,0,709.24,262Q670,262,642,279.3T609,324q-3.66,20.43,4.92,34.19T646.22,380a162.09,162.09,0,0,0,22.44,5.86q12.1,2.31,22.87,4.94,10.26,2.51,15,7.18a11.91,11.91,0,0,1,3.56,11.13q-1.25,7-5.7,10.54a39.23,39.23,0,0,1-10.77,5.93,55.53,55.53,0,0,1-12.92,2.64q-7.77.79-12.45,0.79a107.26,107.26,0,0,1-36.74-6.72,95.17,95.17,0,0,1-32.22-19.24h-5.62l-8.43,47A192.06,192.06,0,0,0,617.73,461q17.64,4.28,42.4,4.28,42.83,0,71-18.12t33.4-47.11q3.62-20.29-5-33h0Zm243-101.52H951.12l-12.86,71.81H862.37l12.86-71.81H823.84L788.7,461.74h51.4l15.48-86.44h75.89L916,461.74h51.39Zm161.41,0h-59.15L996,461.74h51.8l20.89-39.66h73.88l6.68,39.66h53.13Zm-76.33,120.56,37.09-70.36,11.89,70.36h-49Zm256.64,78a195,195,0,0,0,19.09-4.22,140,140,0,0,0,15.22-5q7.35-2.9,15.43-6.19l8.4-46.91H1397q-4.19,3.16-10.58,7.51a144,144,0,0,1-13.64,8.17,87.94,87.94,0,0,1-18.28,7.51,68.86,68.86,0,0,1-19,2.77,61.63,61.63,0,0,1-19.25-3.1,38.64,38.64,0,0,1-16.35-10.34q-6.77-7.11-9.83-19.5T1290.3,364q3.16-17.66,10.26-30a70.41,70.41,0,0,1,16.35-19.9A63.32,63.32,0,0,1,1337,302.89a68.41,68.41,0,0,1,21.21-3.36,52.24,52.24,0,0,1,17.82,2.9,73.36,73.36,0,0,1,14.65,7.11,96.44,96.44,0,0,1,11.38,8.57c3.28,2.9,6,5.4,8.1,7.51H1416l8.52-47.57q-5-2.63-11.75-5.73a113,113,0,0,0-15.26-5.6,144,144,0,0,0-18-3.62,162.7,162.7,0,0,0-22.44-1.38,130.77,130.77,0,0,0-43.23,7.11A110.46,110.46,0,0,0,1278,289a116,116,0,0,0-26.44,32.55,136.69,136.69,0,0,0-14.67,42.3q-4.48,25-.48,44.14t15.24,31.89q11.22,12.78,28.88,19.24t39.86,6.46A154,154,0,0,0,1344.23,464.11Zm236.09-40.32h-93l8.68-48.49h86.33l6.79-37.95h-86.32l6.06-33.86h93l6.8-37.95H1464.52l-35.14,196.2h144.14Z" transform="translate(-87.69 -155)" fill="#fff"/></svg>