<svg xmlns="http://www.w3.org/2000/svg" width="69.78" height="19.78" viewBox="0 0 69.78 19.78">
  <metadata><?xpacket begin="﻿" id="W5M0MpCehiHzreSzNTczkc9d"?>
<x:xmpmeta xmlns:x="adobe:ns:meta/" x:xmptk="Adobe XMP Core 5.6-c140 79.160451, 2017/05/06-01:08:21        ">
   <rdf:RDF xmlns:rdf="http://www.w3.org/1999/02/22-rdf-syntax-ns#">
      <rdf:Description rdf:about=""/>
   </rdf:RDF>
</x:xmpmeta>
                                                                                                    
                                                                                                    
                                                                                                    
                                                                                                    
                                                                                                    
                                                                                                    
                                                                                                    
                                                                                                    
                                                                                                    
                                                                                                    
                                                                                                    
                                                                                                    
                                                                                                    
                                                                                                    
                                                                                                    
                                                                                                    
                                                                                                    
                                                                                                    
                                                                                                    
                                                                                                    
                           
<?xpacket end="w"?></metadata>
<defs>
    <style>
      .cls-1 {
        fill: #778aa3;
        fill-rule: evenodd;
      }
    </style>
  </defs>
  <path id="upwork-logo" class="cls-1" d="M3529.83,5565.93a5.27,5.27,0,1,1-5.27-5.34A5.3,5.3,0,0,1,3529.83,5565.93Zm-2.18.07a3.09,3.09,0,1,0-3.09,3.1A3.181,3.181,0,0,0,3527.65,5566Zm8.63-2.84h0.92v-2.24h-0.66a3.667,3.667,0,0,0-2.96,1.58v-1.58h-2.3v10.09h2.3v-5.08a2.723,2.723,0,0,1,2.7-2.77h0Zm-22.98-2.24,1.72,6.92,1.84-6.92h2.3l-2.89,10.09h-2.24l-1.78-7.06-1.78,7.06h-2.24l-2.96-10.09h2.24l1.98,6.92,1.64-6.92h2.17Zm30.62,4.61,3.81,5.48h-2.7l-3.22-4.42a0.617,0.617,0,0,0-.59-0.33h-0.27v4.75h-2.3v-14.98h2.3v7.99h0.33a3.082,3.082,0,0,0,3.03-3.1h2.3a5.356,5.356,0,0,1-2.69,4.61h0Zm-43.98-4.94a5.34,5.34,0,0,1,0,10.68,6.656,6.656,0,0,1-3.62-1.05l-1.19,5.6h-2.7l1.65-7.71a22.994,22.994,0,0,1-1.91-3.17v1.19a5.136,5.136,0,1,1-10.27,0v-6.99h2.63v6.99a2.505,2.505,0,0,0,5.01,0v-6.99h2.63a23.493,23.493,0,0,0,2.63,5.73c0.73-2.63,2.64-4.28,5.14-4.28h0Zm0,7.98a2.812,2.812,0,0,0,2.7-2.71,2.648,2.648,0,0,0-2.63-2.64c-1.98,0-2.57,1.92-2.77,3.04v0.06l-0.26,1.06a4.651,4.651,0,0,0,2.96,1.19h0Zm48.12-7.32h-0.72v-0.27h1.78v0.27h-0.73v2.04h-0.26v-2.04h-0.07Zm1.52-.27h0.26l0.79,1.26,0.79-1.26h0.26v2.24h-0.26v-1.84l-0.79,1.19-0.79-1.19v1.84h-0.26v-2.24Z" transform="translate(-3481.91 -5556.03)"/>
</svg>
