<?xml version="1.0" encoding="UTF-8"?>
<svg width="24px" height="24px" viewBox="0 0 24 24" version="1.1" xmlns="http://www.w3.org/2000/svg" xmlns:xlink="http://www.w3.org/1999/xlink">
    <!-- Generator: Sketch 48.2 (47327) - http://www.bohemiancoding.com/sketch -->
    <title>youtube_circle</title>
    <desc>Created with Sketch.</desc>
    <defs></defs>
    <g id="Page-1" stroke="none" stroke-width="1" fill="none" fill-rule="evenodd">
        <g id="iconmonstr-youtube-10" fill="#778AA3" fill-rule="nonzero">
            <path d="M16.23,7.102 C14.228,6.966 9.768,6.967 7.769,7.102 C5.604,7.25 5.35,8.558 5.333,12 C5.35,15.436 5.603,16.75 7.77,16.898 C9.769,17.033 14.229,17.034 16.231,16.898 C18.396,16.75 18.651,15.441 18.668,12 C18.65,8.564 18.397,7.25 16.23,7.102 Z M10,14.222 L10,9.778 L14.778,11.996 L10,14.222 Z M12,1 C18.0654,1 23,5.9346 23,12 C23,18.0654 18.0654,23 12,23 C5.9346,23 1,18.0654 1,12 C1,5.9346 5.9346,1 12,1 Z M12,1.77635684e-15 C5.373,1.77635684e-15 0,5.373 0,12 C0,18.627 5.373,24 12,24 C18.627,24 24,18.627 24,12 C24,5.373 18.627,0 12,1.77635684e-15 Z" id="Shape"></path>
        </g>
    </g>
</svg>